<svg width="249" height="254" viewBox="0 0 249 254" fill="none" xmlns="http://www.w3.org/2000/svg">
<g filter="url(#filter0_i_1839_2)">
<circle cx="124.5" cy="129.299" r="80.5" fill="#4CE2B7"/>
</g>
<g filter="url(#filter1_i_1839_2)">
<path d="M166.155 43.4253C152.623 35.9758 137.368 32.2196 121.924 32.5342C106.48 32.8488 91.3912 37.2232 78.1736 45.2177L83.4845 53.9984C95.1607 46.9361 108.49 43.0719 122.133 42.7939C135.776 42.516 149.252 45.8342 161.207 52.415L166.155 43.4253Z" fill="#85B9DE"/>
</g>
<g filter="url(#filter2_i_1839_2)">
<path d="M29.0027 124.108C27.0713 139.434 29.2082 154.999 35.1987 169.237C41.1891 183.476 50.8219 195.886 63.129 205.222L65.4295 202.189C53.6548 193.257 44.4386 181.384 38.7073 167.761C32.976 154.139 30.9315 139.247 32.7793 124.584L29.0027 124.108Z" fill="#4DE5B9"/>
</g>
<g filter="url(#filter3_i_1839_2)">
<path d="M219.018 100.615C216.493 85.3754 210.001 71.0692 200.194 59.1341C190.387 47.1991 177.612 38.0557 163.152 32.623L161.813 36.1863C175.648 41.384 187.871 50.1319 197.253 61.5507C206.636 72.9695 212.847 86.6569 215.263 101.237L219.018 100.615Z" fill="#4DE5B9"/>
</g>
<g filter="url(#filter4_i_1839_2)">
<path d="M60.7995 68.4189C50.127 79.5866 42.5822 93.3667 38.9234 108.374C35.2646 123.382 35.6207 139.088 39.956 153.915L43.6095 152.847C39.4618 138.661 39.1211 123.634 42.6217 109.276C46.1222 94.9175 53.3406 81.7334 63.5514 71.0489L60.7995 68.4189Z" fill="#C7E166"/>
</g>
<g filter="url(#filter5_i_1839_2)">
<path d="M166.856 215.981C186.263 207.816 202.1 192.963 211.491 174.118L208.084 172.42C199.099 190.45 183.948 204.661 165.38 212.473L166.856 215.981Z" fill="#C7E166"/>
</g>
<g filter="url(#filter6_i_1839_2)">
<path d="M101.675 215.251C112.928 218.267 124.668 219.017 136.214 217.46C147.76 215.903 158.882 212.068 168.934 206.179C178.986 200.29 187.769 192.463 194.773 183.153C201.777 173.843 206.863 163.235 209.735 151.945L206.046 151.006C203.298 161.809 198.432 171.958 191.731 180.865C185.03 189.772 176.627 197.26 167.01 202.895C157.392 208.529 146.752 212.198 135.705 213.688C124.659 215.178 113.427 214.459 102.66 211.574L101.675 215.251Z" fill="#4DE5B9"/>
</g>
<g filter="url(#filter7_i_1839_2)">
<path d="M211.462 117.096C208.114 94.9513 196.449 74.9167 178.844 61.0736L176.491 64.0659C193.335 77.3102 204.495 96.4782 207.698 117.665L211.462 117.096Z" fill="#4DE5B9"/>
</g>
<defs>
<filter id="filter0_i_1839_2" x="44" y="48.7988" width="161" height="161" filterUnits="userSpaceOnUse" color-interpolation-filters="sRGB">
<feFlood flood-opacity="0" result="BackgroundImageFix"/>
<feBlend mode="normal" in="SourceGraphic" in2="BackgroundImageFix" result="shape"/>
<feColorMatrix in="SourceAlpha" type="matrix" values="0 0 0 0 0 0 0 0 0 0 0 0 0 0 0 0 0 0 127 0" result="hardAlpha"/>
<feMorphology radius="1" operator="erode" in="SourceAlpha" result="effect1_innerShadow_1839_2"/>
<feOffset/>
<feGaussianBlur stdDeviation="0.75"/>
<feComposite in2="hardAlpha" operator="arithmetic" k2="-1" k3="1"/>
<feColorMatrix type="matrix" values="0 0 0 0 0 0 0 0 0 0 0 0 0 0 0 0 0 0 0.25 0"/>
<feBlend mode="normal" in2="shape" result="effect1_innerShadow_1839_2"/>
</filter>
<filter id="filter1_i_1839_2" x="78.1738" y="32.5156" width="87.9824" height="21.4824" filterUnits="userSpaceOnUse" color-interpolation-filters="sRGB">
<feFlood flood-opacity="0" result="BackgroundImageFix"/>
<feBlend mode="normal" in="SourceGraphic" in2="BackgroundImageFix" result="shape"/>
<feColorMatrix in="SourceAlpha" type="matrix" values="0 0 0 0 0 0 0 0 0 0 0 0 0 0 0 0 0 0 127 0" result="hardAlpha"/>
<feMorphology radius="1" operator="erode" in="SourceAlpha" result="effect1_innerShadow_1839_2"/>
<feOffset/>
<feGaussianBlur stdDeviation="0.75"/>
<feComposite in2="hardAlpha" operator="arithmetic" k2="-1" k3="1"/>
<feColorMatrix type="matrix" values="0 0 0 0 0 0 0 0 0 0 0 0 0 0 0 0 0 0 0.25 0"/>
<feBlend mode="normal" in2="shape" result="effect1_innerShadow_1839_2"/>
</filter>
<filter id="filter2_i_1839_2" x="28.3125" y="124.108" width="37.1172" height="81.1133" filterUnits="userSpaceOnUse" color-interpolation-filters="sRGB">
<feFlood flood-opacity="0" result="BackgroundImageFix"/>
<feBlend mode="normal" in="SourceGraphic" in2="BackgroundImageFix" result="shape"/>
<feColorMatrix in="SourceAlpha" type="matrix" values="0 0 0 0 0 0 0 0 0 0 0 0 0 0 0 0 0 0 127 0" result="hardAlpha"/>
<feMorphology radius="1" operator="erode" in="SourceAlpha" result="effect1_innerShadow_1839_2"/>
<feOffset/>
<feGaussianBlur stdDeviation="0.75"/>
<feComposite in2="hardAlpha" operator="arithmetic" k2="-1" k3="1"/>
<feColorMatrix type="matrix" values="0 0 0 0 0 0 0 0 0 0 0 0 0 0 0 0 0 0 0.25 0"/>
<feBlend mode="normal" in2="shape" result="effect1_innerShadow_1839_2"/>
</filter>
<filter id="filter3_i_1839_2" x="161.812" y="32.623" width="57.2051" height="68.6143" filterUnits="userSpaceOnUse" color-interpolation-filters="sRGB">
<feFlood flood-opacity="0" result="BackgroundImageFix"/>
<feBlend mode="normal" in="SourceGraphic" in2="BackgroundImageFix" result="shape"/>
<feColorMatrix in="SourceAlpha" type="matrix" values="0 0 0 0 0 0 0 0 0 0 0 0 0 0 0 0 0 0 127 0" result="hardAlpha"/>
<feMorphology radius="1" operator="erode" in="SourceAlpha" result="effect1_innerShadow_1839_2"/>
<feOffset/>
<feGaussianBlur stdDeviation="0.75"/>
<feComposite in2="hardAlpha" operator="arithmetic" k2="-1" k3="1"/>
<feColorMatrix type="matrix" values="0 0 0 0 0 0 0 0 0 0 0 0 0 0 0 0 0 0 0.25 0"/>
<feBlend mode="normal" in2="shape" result="effect1_innerShadow_1839_2"/>
</filter>
<filter id="filter4_i_1839_2" x="36.4199" y="68.4189" width="27.1309" height="85.4961" filterUnits="userSpaceOnUse" color-interpolation-filters="sRGB">
<feFlood flood-opacity="0" result="BackgroundImageFix"/>
<feBlend mode="normal" in="SourceGraphic" in2="BackgroundImageFix" result="shape"/>
<feColorMatrix in="SourceAlpha" type="matrix" values="0 0 0 0 0 0 0 0 0 0 0 0 0 0 0 0 0 0 127 0" result="hardAlpha"/>
<feMorphology radius="1" operator="erode" in="SourceAlpha" result="effect1_innerShadow_1839_2"/>
<feOffset/>
<feGaussianBlur stdDeviation="0.75"/>
<feComposite in2="hardAlpha" operator="arithmetic" k2="-1" k3="1"/>
<feColorMatrix type="matrix" values="0 0 0 0 0 0 0 0 0 0 0 0 0 0 0 0 0 0 0.25 0"/>
<feBlend mode="normal" in2="shape" result="effect1_innerShadow_1839_2"/>
</filter>
<filter id="filter5_i_1839_2" x="165.379" y="172.421" width="46.1133" height="43.5605" filterUnits="userSpaceOnUse" color-interpolation-filters="sRGB">
<feFlood flood-opacity="0" result="BackgroundImageFix"/>
<feBlend mode="normal" in="SourceGraphic" in2="BackgroundImageFix" result="shape"/>
<feColorMatrix in="SourceAlpha" type="matrix" values="0 0 0 0 0 0 0 0 0 0 0 0 0 0 0 0 0 0 127 0" result="hardAlpha"/>
<feMorphology radius="1" operator="erode" in="SourceAlpha" result="effect1_innerShadow_1839_2"/>
<feOffset/>
<feGaussianBlur stdDeviation="0.75"/>
<feComposite in2="hardAlpha" operator="arithmetic" k2="-1" k3="1"/>
<feColorMatrix type="matrix" values="0 0 0 0 0 0 0 0 0 0 0 0 0 0 0 0 0 0 0.25 0"/>
<feBlend mode="normal" in2="shape" result="effect1_innerShadow_1839_2"/>
</filter>
<filter id="filter6_i_1839_2" x="101.676" y="151.006" width="108.059" height="67.2441" filterUnits="userSpaceOnUse" color-interpolation-filters="sRGB">
<feFlood flood-opacity="0" result="BackgroundImageFix"/>
<feBlend mode="normal" in="SourceGraphic" in2="BackgroundImageFix" result="shape"/>
<feColorMatrix in="SourceAlpha" type="matrix" values="0 0 0 0 0 0 0 0 0 0 0 0 0 0 0 0 0 0 127 0" result="hardAlpha"/>
<feMorphology radius="1" operator="erode" in="SourceAlpha" result="effect1_innerShadow_1839_2"/>
<feOffset/>
<feGaussianBlur stdDeviation="0.75"/>
<feComposite in2="hardAlpha" operator="arithmetic" k2="-1" k3="1"/>
<feColorMatrix type="matrix" values="0 0 0 0 0 0 0 0 0 0 0 0 0 0 0 0 0 0 0.25 0"/>
<feBlend mode="normal" in2="shape" result="effect1_innerShadow_1839_2"/>
</filter>
<filter id="filter7_i_1839_2" x="176.492" y="61.0732" width="34.9707" height="56.5908" filterUnits="userSpaceOnUse" color-interpolation-filters="sRGB">
<feFlood flood-opacity="0" result="BackgroundImageFix"/>
<feBlend mode="normal" in="SourceGraphic" in2="BackgroundImageFix" result="shape"/>
<feColorMatrix in="SourceAlpha" type="matrix" values="0 0 0 0 0 0 0 0 0 0 0 0 0 0 0 0 0 0 127 0" result="hardAlpha"/>
<feMorphology radius="1" operator="erode" in="SourceAlpha" result="effect1_innerShadow_1839_2"/>
<feOffset/>
<feGaussianBlur stdDeviation="0.75"/>
<feComposite in2="hardAlpha" operator="arithmetic" k2="-1" k3="1"/>
<feColorMatrix type="matrix" values="0 0 0 0 0 0 0 0 0 0 0 0 0 0 0 0 0 0 0.25 0"/>
<feBlend mode="normal" in2="shape" result="effect1_innerShadow_1839_2"/>
</filter>
</defs>
</svg>
